<svg xmlns="http://www.w3.org/2000/svg" viewBox="0 0 100 100" width="24" height="24">
  <path fill="currentColor" transform="translate(50,50) scale(0.42)" d="
    M 29.14,-16.35 L 0.49,-1.42 L 0,-0.63 L 0.49,0.16 L 1.91,0.16 L 6.78,0.46 L 23.43,0.91 L 37.87,1.51 L 51.86,2.26 L 55.38,3.01 L 58.68,7.36 L 58.34,9.53 L 55.38,11.52 L 51.14,11.15 L 41.77,10.51 L 27.71,9.54 L 17.51,8.94 L 2.4,7.37 L 0,7.37 L -0.34,8.34 L 0.48,8.94 L 1.12,9.54 L 15.67,19.4 L 31.42,29.82 L 39.67,35.82 L 44.13,38.86 L 46.38,41.71 L 47.35,47.93 L 43.3,52.39 L 37.86,52.02 L 36.47,51.65 L 30.96,47.41 L 19.19,38.3 L 3.82,26.98 L 1.57,25.11 L 0.67,25.75 L 0.56,26.2 L 1.57,27.89 L 9.93,43 L 18.85,58.37 L 22.82,64.74 L 23.87,68.56 C 24.24,70.13 24.51,71.45 24.51,73.06 L 19.9,79.32 L 17.35,80.14 L 11.2,79.32 L 8.61,77.07 L 4.79,68.33 L -1.4,54.57 L -11,35.86 L -13.81,30.31 L -15.31,25.17 L -15.87,23.6 L -16.84,23.6 L -16.84,24.5 L -17.63,35.04 L -19.09,47.98 L -20.51,64.63 L -21,69.32 L -23.32,74.94 L -27.93,77.98 L -31.53,76.26 L -34.49,72.02 L -34.08,69.28 L -32.32,57.84 L -28.87,39.92 L -26.62,27.92 L -27.93,27.92 L -29.43,29.42 L -35.5,37.48 L -45.7,50.23 L -50.2,55.29 L -55.45,60.88 L -58.82,63.54 L -65.19,63.54 L -69.88,56.57 L -67.78,49.37 L -61.22,41.05 L -55.78,34 L -48,23.5 L -43.13,15.1 L -43.58,14.43 L -44.74,14.54 L -62.36,18.29 L -71.88,20.01 L -83.24,21.96 L -88.38,19.56 L -88.94,17.12 L -86.92,12.13 L -74.77,9.13 L -60.52,6.28 L -39.3,1.26 L -39.04,1.07 L -39.34,0.7 L -48.9,-0.2 L -52.99,-0.42 L -63,-.42 L -81.64,-1.81 L -86.51,-5.03 L -89.43,-8.97 L -88.94,-11.97 L -81.44,-15.79 L -71.32,-13.39 L -47.7,-7.77 L -39.6,-5.75 L -38.48,-5.75 L -38.48,-6.42 L -45.23,-13.02 L -57.6,-24.19 L -73.09,-38.59 L -73.88,-42.15 L -71.89,-44.96 L -69.79,-44.66 L -56.18,-34.42 L -50.93,-29.81 L -39.04,-19.8 L -38.25,-19.8 L -38.25,-20.85 L -40.99,-24.86 L -55.46,-46.61 L -56.21,-53.28 L -55.16,-55.45 L -51.41,-56.76 L -47.29,-56.01 L -38.82,-44.12 L -30.08,-30.73 L -23.03,-18.73 L -22.17,-19.22 L -18.01,-64.03 L -16.06,-66.32 L -11.56,-68.04 L -7.81,-65.19 L -5.82,-60.58 L -7.81,-51.47 L -10.21,-39.58 L -12.16,-30.13 L -13.92,-18.39 L -14.97,-14.49 L -15.04,-14.23 L -14.18,-14.34 L -5.33,-26.49 L 8.13,-44.68 L 18.78,-56.08 L 21.33,-57.09 L 25.75,-54.8 L 25.34,-50.71 L 22.87,-47.07 L 8.13,-28.32 L -0.76,-16.7 L -6.5,-9.99 L -6.54,-9.02 L -6.2,-9.02 L 32.95,-34.44 L 39.92,-35.34 L 42.92,-32.53 L 42.55,-27.92 L 41.13,-26.42 L 29.36,-18.32 Z
  "/>
</svg>
